<?xml version="1.0" encoding="UTF-8"?>
<!DOCTYPE svg PUBLIC "-//W3C//DTD SVG 1.1//EN" "http://www.w3.org/Graphics/SVG/1.1/DTD/svg11.dtd">
<svg width="438pt" height="263pt" viewBox="0 0 438 263" version="1.1" xmlns="http://www.w3.org/2000/svg">
<g id="#000000ff">
<path fill="#000000" opacity="1.00" d=" M 336.34 2.48 C 346.24 0.02 356.65 2.47 365.91 6.23 C 374.08 9.33 381.84 13.39 389.63 17.34 C 399.78 22.41 410.10 27.22 419.68 33.32 C 425.07 37.13 430.82 41.05 433.99 47.03 C 435.62 50.79 436.79 54.86 436.66 58.99 C 436.41 67.33 436.54 75.67 436.60 84.00 C 436.63 87.14 435.62 90.28 433.91 92.89 C 431.12 96.29 427.13 98.35 423.44 100.60 C 403.02 113.01 382.11 124.58 361.31 136.34 C 304.33 168.21 246.93 199.28 189.67 230.63 C 185.57 233.12 180.76 234.30 176.01 234.33 C 166.57 232.26 157.85 227.99 149.24 223.73 C 147.94 223.20 146.39 221.95 145.04 223.07 C 122.98 235.03 100.91 246.94 78.80 258.81 C 76.21 260.61 72.76 261.53 69.76 260.27 C 49.18 246.86 28.66 233.35 8.16 219.82 C 5.92 218.35 3.57 217.02 1.57 215.23 C 1.30 208.82 1.56 202.40 1.47 195.99 C 1.58 192.34 1.19 188.64 1.79 185.02 C 4.34 182.10 8.26 181.12 11.62 179.48 C 31.93 169.74 52.46 160.50 72.80 150.84 C 74.91 149.65 77.80 149.27 79.11 147.05 C 79.52 144.05 79.45 141.00 79.99 138.01 C 80.64 133.92 80.01 129.61 81.73 125.72 C 82.89 123.71 85.33 123.18 87.24 122.15 C 167.68 83.25 248.18 44.46 328.67 5.63 C 331.12 4.35 333.65 3.16 336.34 2.48 M 338.26 4.42 C 335.45 4.89 332.84 6.09 330.30 7.32 C 300.40 21.73 270.53 36.19 240.62 50.57 C 236.31 52.49 232.03 54.47 227.89 56.73 C 186.48 76.73 145.05 96.69 103.64 116.68 C 99.03 119.22 93.97 120.86 89.41 123.48 C 89.31 123.81 89.12 124.46 89.02 124.78 C 118.09 141.23 147.46 157.26 175.31 175.74 C 179.18 178.22 182.80 181.49 184.28 185.98 C 185.56 193.20 183.39 200.42 183.49 207.65 C 185.47 207.99 187.12 206.64 188.80 205.82 C 197.81 200.76 206.93 195.91 216.02 190.98 C 287.29 152.60 358.50 114.11 429.81 75.81 C 432.93 74.09 435.77 70.79 435.21 67.03 C 433.89 61.73 434.88 56.15 433.05 50.95 C 432.03 46.06 427.96 42.83 424.53 39.58 C 416.46 33.16 407.11 28.64 397.98 23.96 C 383.04 16.92 368.70 7.98 352.34 4.55 C 347.68 4.04 342.94 4.13 338.26 4.42 M 432.42 76.58 C 428.05 79.29 423.45 81.63 418.96 84.14 C 358.11 116.92 297.24 149.66 236.43 182.54 C 219.26 191.69 202.24 201.12 184.99 210.13 C 182.63 211.04 182.65 213.89 182.62 216.01 C 182.70 221.16 180.92 226.14 180.68 231.23 C 184.43 232.04 187.49 229.14 190.63 227.60 C 250.02 195.01 309.65 162.85 368.71 129.63 C 388.00 118.71 407.38 107.91 426.26 96.27 C 429.08 94.43 432.49 92.63 433.43 89.12 C 434.69 84.70 434.83 79.94 434.35 75.40 C 433.87 75.70 432.91 76.28 432.42 76.58 M 84.29 126.35 C 82.54 127.58 82.72 130.09 82.65 132.01 C 82.78 136.94 80.76 141.70 81.60 146.64 C 84.80 145.41 87.78 143.69 91.01 142.55 C 94.27 143.97 97.21 145.99 100.29 147.73 C 121.00 159.72 141.78 171.63 162.41 183.76 C 163.12 189.80 162.23 195.95 162.93 201.99 C 166.78 204.36 171.06 205.90 174.98 208.15 C 176.89 209.05 179.33 210.52 181.38 209.25 C 181.25 201.80 183.12 194.44 182.20 187.00 C 180.97 182.70 177.11 179.87 173.73 177.27 C 146.71 159.36 118.15 143.97 90.10 127.77 C 88.40 126.61 86.36 125.94 84.29 126.35 M 89.43 145.57 C 81.29 149.40 73.11 153.17 65.00 157.05 C 46.49 165.43 28.31 174.51 9.75 182.78 C 8.22 183.61 6.40 184.10 5.24 185.46 C 26.84 199.74 48.93 213.29 70.54 227.57 C 71.88 228.67 73.74 229.18 75.39 228.45 C 95.82 217.47 116.42 206.81 136.86 195.84 C 143.73 191.96 151.03 188.85 157.78 184.72 C 157.72 184.42 157.61 183.83 157.55 183.53 C 154.81 181.45 151.58 180.14 148.63 178.38 C 129.84 167.49 110.96 156.76 92.25 145.74 C 91.34 145.22 90.40 145.16 89.43 145.57 M 158.32 187.37 C 156.94 187.87 155.68 188.63 154.40 189.33 C 144.70 194.77 134.70 199.68 124.97 205.07 C 117.64 208.62 110.64 212.81 103.33 216.41 C 93.94 221.84 83.95 226.23 74.66 231.84 C 74.52 238.23 74.91 244.62 74.73 251.00 C 74.82 253.29 74.29 255.80 75.65 257.83 C 80.91 255.57 85.57 252.17 90.73 249.70 C 110.23 239.21 129.67 228.59 149.22 218.21 C 152.71 215.94 156.79 214.65 160.06 212.07 C 160.65 204.39 160.04 196.63 160.38 188.92 C 160.56 187.38 159.88 186.87 158.32 187.37 M 3.27 188.28 L 2.71 188.78 C 2.53 191.52 2.60 194.29 3.03 197.01 C 3.76 201.35 3.18 205.77 3.44 210.14 C 5.73 207.10 2.84 202.47 5.88 199.87 C 8.66 197.82 12.05 196.81 14.90 194.86 C 12.63 192.80 9.91 191.35 7.35 189.69 C 6.10 188.98 4.80 187.93 3.27 188.28 M 16.28 196.38 C 12.89 197.75 9.59 199.48 6.52 201.48 C 6.39 205.73 6.11 210.03 6.60 214.26 C 9.80 217.24 13.72 219.29 17.32 221.73 C 33.49 232.55 49.92 242.99 65.84 254.18 C 66.76 254.78 67.68 255.44 68.77 255.71 C 70.88 252.93 70.74 249.28 70.32 245.99 C 67.73 242.66 63.86 240.80 60.37 238.60 C 44.85 228.81 29.46 218.81 14.02 208.88 C 12.54 207.92 10.75 206.67 11.52 204.65 C 14.46 202.41 17.99 201.15 21.03 199.06 C 19.74 197.85 18.33 195.88 16.28 196.38 M 22.27 200.41 C 19.03 201.72 15.86 203.59 13.24 205.91 C 16.69 208.83 20.81 210.76 24.49 213.35 C 38.80 222.39 53.12 231.40 67.16 240.85 C 68.91 241.77 70.25 244.40 72.49 243.54 C 72.50 240.47 72.51 237.40 72.48 234.34 C 70.94 234.66 69.47 235.22 67.92 235.47 C 66.37 234.48 64.94 233.30 63.62 232.02 C 63.93 230.49 65.08 229.34 65.76 227.98 C 65.58 226.73 64.16 226.35 63.32 225.66 C 53.32 219.41 43.45 212.95 33.57 206.54 C 31.81 205.28 30.55 207.44 29.45 208.47 C 26.95 209.63 24.87 207.27 23.35 205.60 C 23.13 203.77 25.22 202.33 24.66 200.38 C 24.06 200.39 22.87 200.41 22.27 200.41 M 25.30 204.17 C 24.63 206.06 27.42 208.04 28.91 207.14 C 29.36 204.99 27.22 204.17 25.80 203.20 L 25.30 204.17 M 162.81 204.52 C 162.56 207.48 162.89 210.47 162.50 213.43 C 158.21 216.27 153.41 218.24 149.07 221.01 C 151.41 222.87 154.17 224.08 156.94 225.16 C 162.26 227.25 167.40 229.89 172.98 231.28 C 174.69 231.72 176.51 231.87 178.22 231.39 C 179.12 228.67 179.32 225.79 179.66 222.97 C 180.20 219.30 181.06 215.52 180.32 211.82 C 173.83 211.13 168.82 206.54 162.81 204.52 M 66.31 230.44 C 64.66 229.98 65.54 232.37 66.15 232.85 C 66.92 234.10 68.72 233.47 69.94 233.77 C 69.73 232.05 68.23 230.01 66.31 230.44 M 72.18 247.19 L 71.50 247.39 C 71.62 251.19 71.42 254.93 70.26 258.57 C 70.87 258.65 72.09 258.80 72.70 258.87 C 72.78 254.95 72.63 251.02 72.51 247.10 L 72.18 247.19 Z"/>
<path fill="#000000" opacity="1.00" d=" M 71.27 161.33 C 75.52 159.40 81.57 162.47 82.53 167.10 C 81.36 168.32 79.97 169.92 78.08 169.61 C 75.18 169.30 72.37 167.86 70.44 165.67 C 70.59 164.31 69.64 161.92 71.27 161.33 M 73.05 164.02 C 73.48 166.84 77.53 167.68 79.55 166.10 C 77.81 164.74 75.30 162.73 73.05 164.02 Z"/>
<path fill="#000000" opacity="1.00" d=" M 55.38 167.52 C 56.76 166.83 58.47 166.03 59.95 166.96 C 64.57 169.25 69.07 171.82 73.46 174.52 C 75.36 175.47 74.47 178.18 72.72 178.68 C 69.76 179.91 66.85 181.25 63.96 182.61 C 63.43 182.50 62.35 182.28 61.82 182.17 C 63.56 180.65 67.07 180.59 67.73 178.17 C 66.08 176.70 64.14 175.55 62.05 174.84 C 59.87 175.39 56.12 175.85 56.21 178.79 C 57.84 180.11 59.79 181.00 61.55 182.15 C 59.94 183.25 58.37 181.89 56.96 181.18 C 53.04 178.87 48.45 177.49 45.28 174.08 C 47.12 170.16 52.04 169.70 55.38 167.52 M 56.29 169.32 C 53.99 170.37 51.70 171.46 49.51 172.75 C 48.22 174.93 51.30 176.28 52.98 176.53 C 55.63 175.90 58.09 174.59 60.42 173.21 C 60.97 171.76 60.80 170.14 60.20 168.74 C 58.82 168.47 57.52 168.67 56.29 169.32 M 64.18 171.38 L 63.28 171.56 C 62.95 173.40 64.89 174.04 66.00 174.97 C 67.74 176.14 70.03 177.61 72.08 176.11 C 69.47 174.51 66.93 172.75 64.18 171.38 Z"/>
<path fill="#000000" opacity="1.00" d=" M 107.28 184.33 C 111.38 182.04 116.23 185.06 118.53 188.58 C 119.36 190.38 117.51 191.66 116.16 192.40 C 112.59 192.81 108.88 191.04 106.57 188.37 C 106.54 187.09 105.82 185.00 107.28 184.33 M 109.85 186.86 L 109.15 188.02 C 111.06 189.75 113.60 190.01 116.05 189.70 C 114.76 187.88 112.08 185.57 109.85 186.86 Z"/>
<path fill="#000000" opacity="1.00" d=" M 90.39 190.52 C 93.06 188.85 96.29 189.55 98.72 191.25 C 102.22 193.54 105.94 195.43 109.54 197.52 C 110.09 198.85 109.95 200.83 108.37 201.38 C 105.46 202.79 102.52 204.14 99.55 205.41 C 97.23 205.86 94.72 205.64 92.75 204.22 C 89.11 201.81 84.63 200.69 81.41 197.66 C 81.42 197.13 81.42 196.07 81.43 195.54 C 84.09 193.36 87.36 192.10 90.39 190.52 M 92.22 192.18 C 89.60 193.72 86.34 194.45 84.22 196.70 C 85.66 197.81 87.09 199.32 89.00 199.51 C 91.62 198.48 94.24 197.34 96.54 195.70 C 97.67 192.96 94.73 190.04 92.22 192.18 M 98.99 194.14 C 99.13 194.71 99.41 195.85 99.55 196.42 C 101.69 198.06 104.06 200.02 106.93 199.85 C 106.83 199.48 106.63 198.74 106.53 198.37 C 104.47 196.34 101.61 195.29 98.99 194.14 M 95.35 198.35 C 93.97 199.02 92.59 199.70 91.29 200.52 C 91.86 202.47 94.07 203.33 95.68 204.31 C 97.86 205.46 100.16 204.16 101.99 202.98 C 103.04 202.49 103.18 200.50 102.04 200.01 C 100.08 198.77 97.67 196.49 95.35 198.35 Z"/>
</g>
</svg>